<?xml version="1.0" encoding="utf-8"?>
<!-- Generator: Adobe Illustrator 16.0.4, SVG Export Plug-In . SVG Version: 6.00 Build 0)  -->
<!DOCTYPE svg PUBLIC "-//W3C//DTD SVG 1.1//EN" "http://www.w3.org/Graphics/SVG/1.1/DTD/svg11.dtd">
<svg version="1.1" id="Layer_1" xmlns="http://www.w3.org/2000/svg" xmlns:xlink="http://www.w3.org/1999/xlink" x="0px" y="0px"
	 width="144.004px" height="144px" viewBox="0 0 144.004 144" enable-background="new 0 0 144.004 144" xml:space="preserve">
<g>
	<g>
		<g>
			<path fill="#23619E" d="M133.345,0.001H10.629C4.765,0.001,0,4.649,0,10.377v123.234C0,139.345,4.765,144,10.629,144h122.716
				c5.874,0,10.659-4.654,10.659-10.39V10.377C144.004,4.649,139.219,0.001,133.345,0.001z M42.71,122.708H21.35V53.986h21.36
				V122.708z M32.034,44.592c-6.846,0-12.386-5.549-12.386-12.386c0-6.831,5.54-12.38,12.386-12.38
				c6.829,0,12.378,5.549,12.378,12.38C44.412,39.043,38.863,44.592,32.034,44.592z M122.708,122.708h-21.344v-33.42
				c0-7.969-0.146-18.22-11.1-18.22c-11.113,0-12.819,8.681-12.819,17.644v33.996h-21.34V53.986H76.59v9.39h0.286
				c2.852-5.403,9.818-11.099,20.21-11.099c21.628,0,25.621,14.234,25.621,32.736L122.708,122.708L122.708,122.708z"/>
		</g>
	</g>
	<g display="none">
		<polygon display="inline" fill="#23619E" points="147.513,119.09 148.673,119.09 148.673,122.708 149.304,122.708 149.304,119.09 
			150.462,119.09 150.462,118.459 147.513,118.459 		"/>
		<polygon display="inline" fill="#23619E" points="154.563,118.459 153.325,121.579 152.087,118.459 151.188,118.459 
			151.188,122.708 151.815,122.708 151.815,119.476 153.116,122.708 153.535,122.708 154.835,119.476 154.835,122.708 
			155.463,122.708 155.463,118.459 		"/>
	</g>
</g>
</svg>
