<?xml version="1.0" encoding="utf-8"?>
<!-- Generator: Adobe Illustrator 16.0.4, SVG Export Plug-In . SVG Version: 6.00 Build 0)  -->
<!DOCTYPE svg PUBLIC "-//W3C//DTD SVG 1.1//EN" "http://www.w3.org/Graphics/SVG/1.1/DTD/svg11.dtd">
<svg version="1.1" id="Layer_1" xmlns="http://www.w3.org/2000/svg" xmlns:xlink="http://www.w3.org/1999/xlink" x="0px" y="0px"
	 width="802px" height="722.965px" viewBox="0 0 802 722.965" enable-background="new 0 0 802 722.965" xml:space="preserve">
<image overflow="visible" width="2174" height="2124" xlink:href="../../../Screen Shot 2017-09-10 at 8.16.16 PM.png"  transform="matrix(1 0 0 1 -687 -839.1016)">
</image>
<g>
	<rect x="-188.808" y="-656.45" fill="#FFFFFF" width="1068.569" height="1576.033"/>
	<g>
		<g>
			<path fill="none" stroke="#5092FF" stroke-width="12" stroke-miterlimit="10" stroke-dasharray="47,47" d="M342.539,594.003
				c-19.219-10.914-165.714-95.517-208.647-162.301c-44.341-68.975-43.424-155.815,64.241-176.142
				c129.024-24.358,212.906,48.925,286.314,2.279c51.892-32.974,79.832-68.705,93.923-92.146"/>
			<g>
				
					<rect x="340.154" y="578.368" transform="matrix(0.863 0.5052 -0.5052 0.863 346.9706 -91.686)" fill="#5092FF" width="4.8" height="31.2"/>
			</g>
			<g>
				<path fill="#5092FF" d="M591.081,139.655c-1.562,14.455-1.394,33.441,2.103,46.903l-16.737-17.583l-24.108-2.805
					C565.198,160.874,580.473,149.595,591.081,139.655z"/>
			</g>
		</g>
	</g>
	<circle fill="#5092FF" cx="384.217" cy="623.279" r="26.822"/>
	<rect x="214.78" y="330.38" fill="#FF7171" width="648.804" height="28.098"/>
	<rect x="-180.293" y="322.717" fill="#FF7171" width="194.13" height="29.802"/>
	<rect x="-355.692" y="148.169" fill="#FF7171" width="848.896" height="25.544"/>
	<rect x="708.341" y="139.655" fill="#FF7171" width="93.659" height="39.167"/>
	<rect x="-245.855" y="-55.327" fill="#FF7171" width="739.059" height="72.374"/>
</g>
</svg>
