<?xml version="1.0" encoding="utf-8"?>
<!-- Generator: Adobe Illustrator 16.0.4, SVG Export Plug-In . SVG Version: 6.00 Build 0)  -->
<!DOCTYPE svg PUBLIC "-//W3C//DTD SVG 1.1//EN" "http://www.w3.org/Graphics/SVG/1.1/DTD/svg11.dtd">
<svg version="1.1" id="Layer_1" xmlns="http://www.w3.org/2000/svg" xmlns:xlink="http://www.w3.org/1999/xlink" x="0px" y="0px"
	 width="802px" height="1192px" viewBox="0 0 802 1192" enable-background="new 0 0 802 1192" xml:space="preserve">
<image overflow="visible" width="2174" height="2124" xlink:href="../../../Screen Shot 2017-09-10 at 8.16.16 PM.png"  transform="matrix(1 0 0 1 -687 -426)">
</image>
<g>
	<rect x="-188.808" y="-243.349" fill="#FFFFFF" width="1068.569" height="1576.033"/>
	<g>
		<g>
			<path fill="none" stroke="#5092FF" stroke-width="12" stroke-miterlimit="10" stroke-dasharray="47,47" d="M342.539,1007.104
				c-19.219-10.914-165.714-95.517-208.647-162.301c-44.341-68.975-43.424-155.815,64.241-176.142
				c129.024-24.358,409.59,38.207,489.668-30.139c78.322-66.845,74.46-153.883-4.725-227.958
				c-44.312-41.453-131.493-84.332-175.319-104.456"/>
			<g>
				
					<rect x="340.154" y="991.47" transform="matrix(0.863 0.5052 -0.5052 0.863 555.6533 -35.1017)" fill="#5092FF" width="4.8" height="31.2"/>
			</g>
			<g>
				<path fill="#5092FF" d="M481.283,294.342c14.508,0.953,33.471-0.014,46.773-4.073l-16.863,17.462l-1.789,24.205
					C503.57,319.31,491.66,304.523,481.283,294.342z"/>
			</g>
		</g>
	</g>
	<circle fill="#5092FF" cx="384.217" cy="1036.381" r="26.822"/>
	<rect x="214.78" y="743.481" fill="#FF7171" width="648.804" height="28.098"/>
	<rect x="-180.293" y="735.818" fill="#FF7171" width="194.13" height="29.802"/>
	<rect x="-188.808" y="561.271" fill="#FF7171" width="848.896" height="25.544"/>
	<rect x="786.103" y="552.757" fill="#FF7171" width="93.659" height="39.167"/>
	<rect x="-245.855" y="357.775" fill="#FF7171" width="739.059" height="72.374"/>
	<rect x="113.457" y="162.793" fill="#FF7171" width="894.022" height="84.293"/>
	<rect x="795.469" y="-16.863" fill="#FF7171" width="68.115" height="57.898"/>
	<rect x="-199.025" y="-33.041" fill="#FF7171" width="842.084" height="62.156"/>
</g>
</svg>
